<?xml version="1.0" encoding="utf-8"?><!-- Uploaded to: SVG Repo, www.svgrepo.com, Generator: SVG Repo Mixer Tools -->
<svg width="800px" height="800px" viewBox="0 0 24 24" fill="none" xmlns="http://www.w3.org/2000/svg">
<path opacity="0.4" d="M3.09253 9.40421H20.9165" stroke="#130F26" stroke-width="1.5" stroke-linecap="round" stroke-linejoin="round"/>
<path opacity="0.4" fill-rule="evenodd" clip-rule="evenodd" d="M6.80786 13.3098C6.80786 12.8956 7.14365 12.5598 7.55786 12.5598H7.56713C7.98134 12.5598 8.31713 12.8956 8.31713 13.3098C8.31713 13.724 7.98134 14.0598 7.56713 14.0598H7.55786C7.14365 14.0598 6.80786 13.724 6.80786 13.3098ZM12.0046 12.5598C11.5904 12.5598 11.2546 12.8956 11.2546 13.3098C11.2546 13.724 11.5904 14.0598 12.0046 14.0598H12.0138C12.4281 14.0598 12.7638 13.724 12.7638 13.3098C12.7638 12.8956 12.4281 12.5598 12.0138 12.5598H12.0046ZM16.442 12.5598C16.0278 12.5598 15.692 12.8956 15.692 13.3098C15.692 13.724 16.0278 14.0598 16.442 14.0598H16.4513C16.8655 14.0598 17.2013 13.724 17.2013 13.3098C17.2013 12.8956 16.8655 12.5598 16.4513 12.5598H16.442ZM16.442 16.4463C16.0278 16.4463 15.692 16.7821 15.692 17.1963C15.692 17.6105 16.0278 17.9463 16.442 17.9463H16.4513C16.8655 17.9463 17.2013 17.6105 17.2013 17.1963C17.2013 16.7821 16.8655 16.4463 16.4513 16.4463H16.442ZM11.2546 17.1963C11.2546 16.7821 11.5904 16.4463 12.0046 16.4463H12.0138C12.4281 16.4463 12.7638 16.7821 12.7638 17.1963C12.7638 17.6105 12.4281 17.9463 12.0138 17.9463H12.0046C11.5904 17.9463 11.2546 17.6105 11.2546 17.1963ZM7.55786 16.4463C7.14365 16.4463 6.80786 16.7821 6.80786 17.1963C6.80786 17.6105 7.14365 17.9463 7.55786 17.9463H7.56713C7.98134 17.9463 8.31713 17.6105 8.31713 17.1963C8.31713 16.7821 7.98134 16.4463 7.56713 16.4463H7.55786Z" fill="#130F26"/>
<path d="M16.0438 2V5.29078" stroke="#130F26" stroke-width="1.5" stroke-linecap="round" stroke-linejoin="round"/>
<path d="M7.9654 2V5.29078" stroke="#130F26" stroke-width="1.5" stroke-linecap="round" stroke-linejoin="round"/>
<path fill-rule="evenodd" clip-rule="evenodd" d="M16.2383 3.5791H7.77096C4.83427 3.5791 3 5.21504 3 8.22213V17.2718C3 20.3261 4.83427 21.9999 7.77096 21.9999H16.229C19.175 21.9999 21 20.3545 21 17.3474V8.22213C21.0092 5.21504 19.1842 3.5791 16.2383 3.5791Z" stroke="#130F26" stroke-width="1.5" stroke-linecap="round" stroke-linejoin="round"/>
</svg>